<svg width="156" height="138" viewBox="0 0 156 138" fill="none" xmlns="http://www.w3.org/2000/svg">
<ellipse cx="118" cy="46.5" rx="38" ry="37.5" fill="white"/>
<rect x="50" width="61" height="110" fill="#1E1E1E"/>
<path d="M69 81.5H8C12.8333 76.8333 31.8 57.4 69 17V81.5ZM69 81.5V138M69 81.5H111M111 81.5V138M111 81.5V17" stroke="white" stroke-width="6"/>
<ellipse cx="118.5" cy="46.5" rx="32.5" ry="31.5" fill="#1E1E1E"/>
<path d="M109.197 19.6901C106.893 19.978 107.122 36.0178 107.867 38.6259C108.617 41.2515 109.947 43.1624 111.701 45.3552C113.112 47.1183 112.014 53.3591 112.014 55.6056C112.014 62.5947 112.014 57.5894 112.014 53.4146C112.014 48.7459 112.014 44.0771 112.014 39.4084C112.014 27.8746 110.606 45.4336 110.606 49.2675C110.606 56.075 110.606 62.8826 110.606 69.6901C110.606 73.2112 110.606 76.7323 110.606 80.2534C110.606 87.8898 109.197 83.4417 109.197 78.1408C109.197 74.4433 108.245 69.1495 109.275 65.543C110.146 62.4942 112.014 61.3889 112.014 57.7182C112.014 54.0369 112.73 49.4761 111.936 45.9029C111.493 43.9113 107.789 53.0341 107.789 54.9013" stroke="white" stroke-width="3" stroke-linecap="round"/>
<path d="M108.844 58.8324C108.844 59.6449 108.844 57.2084 108.844 56.8584C108.844 56.2247 108.428 55.7139 108.347 55.1053C108.16 53.7 107.85 57.9116 107.85 59.3293C107.85 61.9382 107.85 64.5472 107.85 67.1561C107.85 71.7699 107.602 76.4899 107.602 81.1948" stroke="white" stroke-width="3" stroke-linecap="round"/>
<path d="M106.111 55.3538C106.111 55.6988 106.172 55.8183 106.359 56.0992" stroke="white" stroke-width="3" stroke-linecap="round"/>
<path d="M106.856 60.3232C105.813 60.1928 107.569 56.1856 107.602 55.6023C107.706 53.7281 107.819 51.9955 108.085 50.1359C108.338 48.3616 108.596 46.5674 108.596 44.6695C108.596 42.6887 109.589 41.018 109.589 39.0651C109.589 37.9822 109.838 36.9711 109.838 35.835C109.838 35.2026 109.979 34.3974 109.824 33.7782C109.622 32.9687 108.905 35.1845 108.596 35.9593C107.724 38.1387 107.105 40.0987 107.105 42.4333C107.105 44.6048 108.099 46.7355 108.099 48.8936C108.099 50.8296 108.428 52.8923 108.347 54.9121C108.304 55.9766 108.099 55.0731 108.099 54.4703C108.099 53.6053 108.347 52.7682 108.347 51.9304C108.347 51.5086 108.172 50.7456 108.043 50.3292C107.874 49.7785 108.024 48.9932 107.795 48.507C107.794 48.5055 107.105 51.2014 107.105 51.8752C107.105 52.7357 107.105 53.5961 107.105 54.4565C107.105 55.8578 107.353 51.6614 107.353 50.2601C107.353 49.74 107.389 47.826 107.657 47.4579C108.52 46.2718 107.85 42.411 107.85 40.9425C107.85 38.5222 107.85 36.1019 107.85 33.6816C107.85 33.173 108.106 30.8927 107.657 32.1908C107.259 33.3412 107.105 34.1222 107.105 35.3519C107.105 36.3623 106.976 37.4578 107.119 38.4578C107.397 40.4074 109.773 36.6967 109.948 36.4148C111.138 34.4987 110.832 32.321 110.832 30.1478C110.832 28.4716 110.583 26.8767 110.583 25.1646C110.583 24.3915 110.583 22.0725 110.583 22.8455C110.583 24.3149 109.883 25.7321 109.838 27.2766C109.803 28.4671 109.138 29.518 109.092 30.6999C109.05 31.809 109.054 32.7684 108.858 33.8472C108.471 35.9721 109.915 33.4009 110.197 32.7567C110.599 31.838 110.583 29.7349 110.583 28.7674C110.583 26.7796 110.583 24.7919 110.583 22.8041C110.583 21.8976 110.637 20.9755 110.583 20.0709C110.542 19.3766 109.015 19.4769 108.596 18.9528C108.342 18.6364 108.53 18.5801 107.477 18.5801C106.944 18.5801 106.856 20.5368 106.856 21.0648C106.856 22.8455 106.856 24.6262 106.856 26.4069C106.856 34.8469 106.856 39.324 106.856 40.4455C106.856 42.2057 106.608 44.1702 106.608 45.7877C106.608 46.6297 106.111 47.3272 106.111 48.0239C106.111 49.3077 106.111 50.5914 106.111 51.8752C106.111 55.625 107.353 59.2379 107.353 63.0564" stroke="white" stroke-width="3" stroke-linecap="round"/>
<path d="M104.123 64.0503C103.258 63.1849 103.82 62.4881 103.875 61.5655C103.964 60.0501 104.123 62.8695 104.123 63.3048C104.123 64.3681 104.123 63.5919 104.123 63.0012C104.123 62.2287 104.372 61.5691 104.372 60.8201C104.372 59.7944 104.62 58.7872 104.62 57.7142C104.62 55.8487 103.875 54.3097 103.875 52.3721C103.875 50.1574 104.372 48.0788 104.372 45.9119" stroke="#1E1E1E" stroke-width="3" stroke-linecap="round"/>
<path d="M104.198 65.4845C104.161 65.1511 103.983 64.8854 103.983 64.5172C103.983 64.2135 103.987 63.9446 104.051 63.6574C104.115 63.3662 104.255 62.5226 104.337 62.8095C104.418 63.0918 104.341 63.5033 104.341 63.8007C104.341 64.808 104.538 65.7737 104.556 66.7743C104.577 67.9144 104.556 69.0575 104.556 70.1977C104.556 70.8178 104.484 71.4233 104.484 72.0447C104.484 72.4934 104.458 72.9507 104.488 73.3982C104.515 73.7804 104.699 74.1696 104.699 74.5446C104.699 75.0581 104.699 75.5716 104.699 76.0851C104.699 76.6383 104.709 77.0206 105.305 77.0206C105.602 77.0206 105.772 76.7851 105.989 77.0564C106.086 77.1777 106.061 77.2356 106.24 77.2356C106.374 77.2356 106.66 77.2693 106.455 77.0644C106.227 76.8366 105.621 76.7277 105.308 76.6584C105.153 76.6238 105.046 76.5907 104.879 76.5907C104.729 76.5907 104.398 76.6535 104.66 76.4872C104.855 76.3627 105.284 76.4474 105.504 76.4474C105.872 76.4474 106.201 76.5907 106.562 76.5907C106.73 76.5907 106.897 76.5907 107.064 76.5907C107.328 76.5907 107.178 76.6435 107.295 76.7897C107.672 77.2607 107.566 76.544 107.566 76.2483C107.566 75.8926 107.441 75.276 107.581 74.9427C107.663 74.75 107.706 74.4415 107.709 74.2341C107.715 73.82 107.852 73.4843 107.852 73.0638C107.852 72.61 107.852 72.1562 107.852 71.7024C107.852 71.14 108.055 70.7426 108.155 70.2136C108.268 69.6113 108.357 69.0237 108.194 68.4223C107.971 67.5936 107.619 66.8897 107.239 66.1294C107.014 65.6793 107.09 64.9675 107.06 64.4894C107.059 64.4659 107.003 64.0778 106.953 64.1868C106.739 64.6454 106.683 65.2514 106.598 65.7433C106.338 67.261 105.606 68.6517 105.563 70.2056C105.543 70.9233 105.595 71.6464 105.555 72.3632C105.523 72.948 105.376 73.5207 105.42 74.1107C105.454 74.573 105.554 74.7522 105.894 74.3894C106.647 73.5839 107.639 72.8251 107.916 71.7183C108.219 70.5043 107.966 69.5575 107.53 68.4263C107.193 67.552 106.921 66.6913 106.921 65.7473C106.921 64.2054 106.921 62.6635 106.921 61.1217C106.921 60.4474 106.881 59.8329 106.746 59.1751C106.608 58.5089 106.679 57.7759 106.594 57.0972C106.364 55.2559 105.851 53.5142 105.384 51.7312C105.054 50.47 105.199 49.1367 105.328 47.858C105.497 46.1859 105.821 44.5338 105.973 42.8582C106.091 41.5592 106.297 40.3018 106.276 38.989C106.269 38.5755 106.186 38.161 106.117 37.755C106.052 37.3729 106.039 36.7004 105.918 37.5161C105.727 38.7951 105.741 40.0916 105.559 41.3734C105.362 42.7661 105.255 44.1747 104.986 45.5571C104.805 46.4901 104.672 47.4407 104.632 48.3914C104.601 49.1156 104.699 49.8273 104.699 50.5489C104.699 51.5998 104.699 52.6507 104.699 53.7017C104.699 54.3791 104.764 54.9994 104.91 55.6602C104.997 56.0496 105.03 56.468 105.265 56.8026C105.542 57.1986 105.629 56.0711 105.671 55.8831C105.842 55.1062 105.989 54.4311 105.989 53.63C105.989 52.5234 105.989 51.4167 105.989 50.3101C105.989 49.6634 106.061 49.0238 106.061 48.3755C106.061 47.6586 106.014 46.9243 106.077 46.21C106.142 45.4659 106.209 44.7311 106.292 43.9887C106.329 43.6548 106.427 43.3333 106.475 43.0015C106.49 42.8952 106.491 42.5354 106.491 42.8582C106.491 45.1218 106.151 47.3854 105.918 49.6334C105.768 51.0669 105.575 52.5087 105.504 53.9485C105.435 55.3248 105.559 56.667 105.703 58.0327C105.941 60.3091 105.918 62.6098 105.918 64.8954C105.918 67.3475 105.918 69.7996 105.918 72.2517C105.918 73.3276 105.796 74.6009 106.117 75.6433C106.169 75.8146 106.177 75.9853 106.24 76.1608C106.339 76.4377 106.276 76.5267 106.276 76.1329C106.276 75.499 106.686 75.1337 106.96 74.5844C107.48 73.5448 107.963 72.6018 108.103 71.4277C108.295 69.8161 108.126 68.1772 108.318 66.5633C108.463 65.3428 108.587 64.1217 108.748 62.9011C108.906 61.6992 108.927 60.5355 108.927 59.3224C108.927 58.4589 108.977 57.5582 108.819 56.7071C108.715 56.1433 108.814 55.5537 108.748 54.9834C108.664 54.2602 108.7 53.5316 108.605 52.806C108.333 50.7457 108.497 48.5889 108.497 46.5125C108.497 45.9871 108.497 45.4616 108.497 44.9361C108.497 44.553 108.354 44.2156 108.354 43.8454C108.354 43.4624 108.154 43.0701 108.139 42.6672C108.122 42.2254 108.003 41.7754 107.94 41.3376C107.878 40.9141 107.924 40.4596 107.924 40.0319C107.924 38.9096 108.139 37.8119 108.139 36.6802" stroke="#1E1E1E" stroke-width="3" stroke-linecap="round"/>
<path d="M105 37V17L103 25.2051V30.8462" stroke="#1E1E1E" stroke-width="6"/>
<path d="M106.706 16.4025C106.726 16.32 107.043 16.1984 107.136 16.1875C107.23 16.1764 107.254 15.8777 107.207 15.9367C107.058 16.1239 106.944 16.3468 106.761 16.5299C106.358 16.9332 106.927 16.5404 107.1 16.4025C107.298 16.2439 107.488 16.029 107.653 15.8452C107.8 15.6815 108.224 15.4727 107.745 15.6859C107.367 15.8537 107.241 15.9691 107.08 16.3308C106.875 16.7912 106.879 17.3855 106.419 17.6922" stroke="#1E1E1E" stroke-width="3" stroke-linecap="round"/>
<path d="M107.995 15.9009C108.201 15.9009 108.21 15.7141 108.21 15.5427C108.21 15.2396 107.961 15.3277 107.709 15.3277" stroke="#1E1E1E" stroke-width="3" stroke-linecap="round"/>
<path d="M106.347 80.46C106.549 80.46 106.742 80.3883 106.957 80.3883C107.075 80.3883 107.193 80.3883 107.311 80.3883C107.469 80.3883 106.917 80.3883 106.849 80.3883C106.704 80.3883 105.965 80.3468 106.033 80.3167C106.3 80.198 106.717 80.293 106.937 80.1176C107.072 80.0093 107.532 80.03 107.1 80.03C106.897 80.03 106.694 80.03 106.491 80.03C106.376 80.03 106.059 79.9813 105.953 79.9226C105.868 79.8751 105.778 79.8867 105.683 79.8867C105.341 79.8867 106.364 79.8199 106.706 79.8151C107.47 79.8043 108.235 79.8151 108.999 79.8151C109.455 79.8151 109.481 79.8955 109.026 79.9942C108.539 80.1002 107.938 80.1017 107.438 80.1017C106.958 80.1017 106.469 80.1283 105.989 80.1017C105.576 80.0787 105.1 79.9584 104.699 79.9584" stroke="white" stroke-width="3" stroke-linecap="round"/>
<path d="M107.279 16.1159C106.762 16.1804 106.194 16.2339 105.647 16.1716C105.204 16.1212 104.775 15.75 104.381 15.7576C103.699 15.7707 103.086 16.0773 102.637 16.5617C102.406 16.8114 102.341 17.1754 102.176 17.4614C102.142 17.5188 101.855 18.0319 101.921 17.8037C102.145 17.0308 102.877 16.2435 103.521 15.7735C104.025 15.4057 104.647 15.0635 105.217 14.8102C105.979 14.4713 106.933 14.1422 107.78 14.1096C108.197 14.0936 108.658 13.9696 109.07 13.8946C109.457 13.8243 109.843 13.8041 110.217 13.6797" stroke="#1E1E1E" stroke-width="3" stroke-linecap="round"/>
<path d="M110 84C110 25.5929 110 9.66372 110 9" stroke="white" stroke-width="6"/>
<path d="M116 34V63" stroke="#1E1E1E" stroke-width="6"/>
<path d="M113.852 11.9262C114.096 11.9262 114.892 12.0567 115.069 11.8794C115.338 11.6097 114.346 11.5049 114.273 11.5049C112.999 11.5049 114.082 11.7765 114.788 11.306C115.077 11.1134 114.094 11.2943 113.746 11.2943C113.102 11.2943 112.966 11.2943 113.735 11.2943C113.993 11.2943 115.005 11.2943 114.179 11.2943C113.75 11.2943 112.892 11.7234 112.892 11.2943C112.892 10.8106 115.318 10.873 113.22 10.873C111.928 10.873 114.331 10.6623 114.776 10.6623C115.058 10.6623 114.239 10.4517 113.957 10.4517C113.738 10.4517 112.673 10.4517 113.43 10.4517C114.343 10.4517 115.256 10.4517 116.169 10.4517" stroke="white" stroke-width="3" stroke-linecap="round"/>
<path d="M114.694 10.4517C114.239 10.4517 114.053 10.4712 113.852 10.873" stroke="white" stroke-width="3" stroke-linecap="round"/>
<path d="M115.326 11.2943C114.865 11.2943 114.366 11.5838 113.945 11.7039C113.611 11.7996 112.158 11.4622 112.705 11.306C113.179 11.1705 114.317 11.2943 113.115 11.2943C112.908 11.2943 112.355 11.5848 112.518 11.4581C112.703 11.3138 113.093 11.0836 113.325 11.0836C114.448 11.0836 112.643 11.1868 113.056 11.0368C113.785 10.7717 111.728 11.4332 113.009 10.8262C114.071 10.323 111.84 11.2813 112.635 11.0368C114.046 10.6026 112.497 10.6623 111.956 10.6623" stroke="white" stroke-width="3" stroke-linecap="round"/>
<path d="M113.009 82.4942C114.368 82.4942 114.506 83.1648 116.075 82.7166C116.303 82.6515 117.738 82.2614 117.854 82.3772C118.402 82.9246 118.723 82.4942 119.539 82.4942" stroke="white" stroke-width="3" stroke-linecap="round"/>
<path d="M117.791 82.2478C117.7 82.2579 117.101 82.3655 117.063 82.4132C116.953 82.5513 116.244 82.4463 116.071 82.4463C115.865 82.4463 115.109 82.6447 115.678 82.6447C116.074 82.6447 116.463 82.7109 116.865 82.7109C117.077 82.7109 117.609 82.6447 117.096 82.6447C116.823 82.6447 116.527 82.7771 116.269 82.7771C115.511 82.7771 114.735 82.9755 113.987 82.9755C113.929 82.9755 113.55 83.0417 113.722 83.0417C113.866 83.0417 114.009 83.0417 114.152 83.0417C114.516 83.0417 114.911 82.9941 115.27 83.0453C115.83 83.1254 116.407 83.0956 116.964 82.9718C117.282 82.9011 117.59 82.929 117.923 82.9094C118.061 82.9013 118.027 82.839 117.857 82.9241C117.818 82.9435 117.424 83.1666 117.637 83.1666C117.83 83.1666 117.971 83.0417 118.155 83.0417C118.391 83.0417 118.628 83.0417 118.864 83.0417C119.19 83.0417 119.605 83.1181 119.776 82.7771" stroke="white" stroke-width="3" stroke-linecap="round"/>
</svg>
