<svg width="156" height="130" viewBox="0 0 156 130" fill="none" xmlns="http://www.w3.org/2000/svg">
<path d="M109.197 11.6901C106.893 11.978 107.122 28.0178 107.867 30.6259C108.617 33.2515 109.947 35.1624 111.701 37.3552C113.112 39.1183 112.014 45.3591 112.014 47.6056C112.014 54.5947 112.014 49.5894 112.014 45.4146C112.014 40.7459 112.014 36.0771 112.014 31.4084C112.014 19.8746 110.606 37.4336 110.606 41.2675C110.606 48.075 110.606 54.8826 110.606 61.6901C110.606 65.2112 110.606 68.7323 110.606 72.2534C110.606 79.8898 109.197 75.4417 109.197 70.1408C109.197 66.4433 108.245 61.1495 109.275 57.543C110.146 54.4942 112.014 53.3889 112.014 49.7182C112.014 46.0369 112.73 41.4761 111.936 37.9029C111.493 35.9113 107.789 45.0341 107.789 46.9013" stroke="#B90808" stroke-width="3" stroke-linecap="round"/>
<path d="M108.844 50.8324C108.844 51.6449 108.844 49.2084 108.844 48.8584C108.844 48.2247 108.428 47.7139 108.347 47.1053C108.16 45.7 107.85 49.9116 107.85 51.3293C107.85 53.9382 107.85 56.5472 107.85 59.1561C107.85 63.7699 107.602 68.4899 107.602 73.1948" stroke="white" stroke-width="3" stroke-linecap="round"/>
<path d="M106.111 47.3538C106.111 47.6988 106.172 47.8183 106.359 48.0992" stroke="white" stroke-width="3" stroke-linecap="round"/>
<path d="M106.856 52.3232C105.813 52.1928 107.569 48.1856 107.602 47.6023C107.706 45.7281 107.819 43.9955 108.085 42.1359C108.338 40.3616 108.596 38.5674 108.596 36.6695C108.596 34.6887 109.589 33.018 109.589 31.0651C109.589 29.9822 109.838 28.9711 109.838 27.835C109.838 27.2026 109.979 26.3974 109.824 25.7782C109.622 24.9687 108.905 27.1845 108.596 27.9593C107.724 30.1387 107.105 32.0987 107.105 34.4333C107.105 36.6048 108.099 38.7355 108.099 40.8936C108.099 42.8296 108.428 44.8923 108.347 46.9121C108.304 47.9766 108.099 47.0731 108.099 46.4703C108.099 45.6053 108.347 44.7682 108.347 43.9304C108.347 43.5086 108.172 42.7456 108.043 42.3292C107.874 41.7785 108.024 40.9932 107.795 40.507C107.794 40.5055 107.105 43.2014 107.105 43.8752C107.105 44.7357 107.105 45.5961 107.105 46.4565C107.105 47.8578 107.353 43.6614 107.353 42.2601C107.353 41.74 107.389 39.826 107.657 39.4579C108.52 38.2718 107.85 34.411 107.85 32.9425C107.85 30.5222 107.85 28.1019 107.85 25.6816C107.85 25.173 108.106 22.8927 107.657 24.1908C107.259 25.3412 107.105 26.1222 107.105 27.3519C107.105 28.3623 106.976 29.4578 107.119 30.4578C107.397 32.4074 109.773 28.6967 109.948 28.4148C111.138 26.4987 110.832 24.321 110.832 22.1478C110.832 20.4716 110.583 18.8767 110.583 17.1646C110.583 16.3915 110.583 14.0725 110.583 14.8455C110.583 16.3149 109.883 17.7321 109.838 19.2766C109.803 20.4671 109.138 21.518 109.092 22.6999C109.05 23.809 109.054 24.7684 108.858 25.8472C108.471 27.9721 109.915 25.4009 110.197 24.7567C110.599 23.838 110.583 21.7349 110.583 20.7674C110.583 18.7796 110.583 16.7919 110.583 14.8041C110.583 13.8976 110.637 12.9755 110.583 12.0709C110.542 11.3766 109.015 11.4769 108.596 10.9528C108.342 10.6364 108.53 10.5801 107.477 10.5801C106.944 10.5801 106.856 12.5368 106.856 13.0648C106.856 14.8455 106.856 16.6262 106.856 18.4069C106.856 26.8469 106.856 31.324 106.856 32.4455C106.856 34.2057 106.608 36.1702 106.608 37.7877C106.608 38.6297 106.111 39.3272 106.111 40.0239C106.111 41.3077 106.111 42.5914 106.111 43.8752C106.111 47.625 107.353 51.2379 107.353 55.0564" stroke="white" stroke-width="3" stroke-linecap="round"/>
<path d="M104.123 56.0503C103.258 55.1849 103.82 54.4881 103.875 53.5655C103.964 52.0501 104.123 54.8695 104.123 55.3048C104.123 56.3681 104.123 55.5919 104.123 55.0012C104.123 54.2287 104.372 53.5691 104.372 52.8201C104.372 51.7944 104.62 50.7872 104.62 49.7142C104.62 47.8487 103.875 46.3097 103.875 44.3721C103.875 42.1574 104.372 40.0788 104.372 37.9119" stroke="#1E1E1E" stroke-width="3" stroke-linecap="round"/>
<path d="M104.198 57.4845C104.161 57.1511 103.983 56.8854 103.983 56.5172C103.983 56.2135 103.987 55.9446 104.051 55.6574C104.115 55.3662 104.255 54.5226 104.337 54.8095C104.418 55.0918 104.341 55.5033 104.341 55.8007C104.341 56.808 104.538 57.7737 104.556 58.7743C104.577 59.9144 104.556 61.0575 104.556 62.1977C104.556 62.8178 104.484 63.4233 104.484 64.0447C104.484 64.4934 104.458 64.9507 104.488 65.3982C104.515 65.7804 104.699 66.1696 104.699 66.5446C104.699 67.0581 104.699 67.5716 104.699 68.0851C104.699 68.6383 104.709 69.0206 105.305 69.0206C105.602 69.0206 105.772 68.7851 105.989 69.0564C106.086 69.1777 106.061 69.2356 106.24 69.2356C106.374 69.2356 106.66 69.2693 106.455 69.0644C106.227 68.8366 105.621 68.7277 105.308 68.6584C105.153 68.6238 105.046 68.5907 104.879 68.5907C104.729 68.5907 104.398 68.6535 104.66 68.4872C104.855 68.3627 105.284 68.4474 105.504 68.4474C105.872 68.4474 106.201 68.5907 106.562 68.5907C106.73 68.5907 106.897 68.5907 107.064 68.5907C107.328 68.5907 107.178 68.6435 107.295 68.7897C107.672 69.2607 107.566 68.544 107.566 68.2483C107.566 67.8926 107.441 67.276 107.581 66.9427C107.663 66.75 107.706 66.4415 107.709 66.2341C107.715 65.82 107.852 65.4843 107.852 65.0638C107.852 64.61 107.852 64.1562 107.852 63.7024C107.852 63.14 108.055 62.7426 108.155 62.2136C108.268 61.6113 108.357 61.0237 108.194 60.4223C107.971 59.5936 107.619 58.8897 107.239 58.1294C107.014 57.6793 107.09 56.9675 107.06 56.4894C107.059 56.4659 107.003 56.0778 106.953 56.1868C106.739 56.6454 106.683 57.2514 106.598 57.7433C106.338 59.261 105.606 60.6517 105.563 62.2056C105.543 62.9233 105.595 63.6464 105.555 64.3632C105.523 64.948 105.376 65.5207 105.42 66.1107C105.454 66.573 105.554 66.7522 105.894 66.3894C106.647 65.5839 107.639 64.8251 107.916 63.7183C108.219 62.5043 107.966 61.5575 107.53 60.4263C107.193 59.552 106.921 58.6913 106.921 57.7473C106.921 56.2054 106.921 54.6635 106.921 53.1217C106.921 52.4474 106.881 51.8329 106.746 51.1751C106.608 50.5089 106.679 49.7759 106.594 49.0972C106.364 47.2559 105.851 45.5142 105.384 43.7312C105.054 42.47 105.199 41.1367 105.328 39.858C105.497 38.1859 105.821 36.5338 105.973 34.8582C106.091 33.5592 106.297 32.3018 106.276 30.989C106.269 30.5755 106.186 30.161 106.117 29.755C106.052 29.3729 106.039 28.7004 105.918 29.5161C105.727 30.7951 105.741 32.0916 105.559 33.3734C105.362 34.7661 105.255 36.1747 104.986 37.5571C104.805 38.4901 104.672 39.4407 104.632 40.3914C104.601 41.1156 104.699 41.8273 104.699 42.5489C104.699 43.5998 104.699 44.6507 104.699 45.7017C104.699 46.3791 104.764 46.9994 104.91 47.6602C104.997 48.0496 105.03 48.468 105.265 48.8026C105.542 49.1986 105.629 48.0711 105.671 47.8831C105.842 47.1062 105.989 46.4311 105.989 45.63C105.989 44.5234 105.989 43.4167 105.989 42.3101C105.989 41.6634 106.061 41.0238 106.061 40.3755C106.061 39.6586 106.014 38.9243 106.077 38.21C106.142 37.4659 106.209 36.7311 106.292 35.9887C106.329 35.6548 106.427 35.3333 106.475 35.0015C106.49 34.8952 106.491 34.5354 106.491 34.8582C106.491 37.1218 106.151 39.3854 105.918 41.6334C105.768 43.0669 105.575 44.5087 105.504 45.9485C105.435 47.3248 105.559 48.667 105.703 50.0327C105.941 52.3091 105.918 54.6098 105.918 56.8954C105.918 59.3475 105.918 61.7996 105.918 64.2517C105.918 65.3276 105.796 66.6009 106.117 67.6433C106.169 67.8146 106.177 67.9853 106.24 68.1608C106.339 68.4377 106.276 68.5267 106.276 68.1329C106.276 67.499 106.686 67.1337 106.96 66.5844C107.48 65.5448 107.963 64.6018 108.103 63.4277C108.295 61.8161 108.126 60.1772 108.318 58.5633C108.463 57.3428 108.587 56.1217 108.748 54.9011C108.906 53.6992 108.927 52.5355 108.927 51.3224C108.927 50.4589 108.977 49.5582 108.819 48.7071C108.715 48.1433 108.814 47.5537 108.748 46.9834C108.664 46.2602 108.7 45.5316 108.605 44.806C108.333 42.7457 108.497 40.5889 108.497 38.5125C108.497 37.9871 108.497 37.4616 108.497 36.9361C108.497 36.553 108.354 36.2156 108.354 35.8454C108.354 35.4624 108.154 35.0701 108.139 34.6672C108.122 34.2254 108.003 33.7754 107.94 33.3376C107.878 32.9141 107.924 32.4596 107.924 32.0319C107.924 30.9096 108.139 29.8119 108.139 28.6802" stroke="#1E1E1E" stroke-width="3" stroke-linecap="round"/>
<path d="M105 29V9L103 17.2051V22.8462" stroke="#1E1E1E" stroke-width="6"/>
<path d="M106.706 8.40247C106.726 8.32001 107.043 8.19838 107.136 8.18751C107.23 8.17644 107.254 7.87772 107.207 7.93673C107.058 8.12388 106.944 8.3468 106.761 8.52985C106.358 8.93316 106.927 8.54037 107.1 8.40247C107.298 8.24389 107.488 8.02902 107.653 7.84517C107.8 7.68146 108.224 7.47268 107.745 7.68595C107.367 7.85371 107.241 7.96907 107.08 8.33082C106.875 8.79117 106.879 9.38554 106.419 9.69222" stroke="#1E1E1E" stroke-width="3" stroke-linecap="round"/>
<path d="M107.995 7.90093C108.201 7.90093 108.21 7.71411 108.21 7.54267C108.21 7.23958 107.961 7.32771 107.709 7.32771" stroke="#1E1E1E" stroke-width="3" stroke-linecap="round"/>
<path d="M106.347 72.46C106.549 72.46 106.742 72.3883 106.957 72.3883C107.075 72.3883 107.193 72.3883 107.311 72.3883C107.469 72.3883 106.917 72.3883 106.849 72.3883C106.704 72.3883 105.965 72.3468 106.033 72.3167C106.3 72.198 106.717 72.293 106.937 72.1176C107.072 72.0093 107.532 72.03 107.1 72.03C106.897 72.03 106.694 72.03 106.491 72.03C106.376 72.03 106.059 71.9813 105.953 71.9226C105.868 71.8751 105.778 71.8867 105.683 71.8867C105.341 71.8867 106.364 71.8199 106.706 71.8151C107.47 71.8043 108.235 71.8151 108.999 71.8151C109.455 71.8151 109.481 71.8955 109.026 71.9942C108.539 72.1002 107.938 72.1017 107.438 72.1017C106.958 72.1017 106.469 72.1283 105.989 72.1017C105.576 72.0787 105.1 71.9584 104.699 71.9584" stroke="#B90808" stroke-width="3" stroke-linecap="round"/>
<path d="M107.279 8.11588C106.762 8.18043 106.194 8.23394 105.647 8.17161C105.204 8.1212 104.775 7.75003 104.381 7.75761C103.699 7.77072 103.086 8.07729 102.637 8.56172C102.406 8.81144 102.341 9.1754 102.176 9.46135C102.142 9.51879 101.855 10.0319 101.921 9.80369C102.145 9.03077 102.877 8.24345 103.521 7.77354C104.025 7.40574 104.647 7.0635 105.217 6.81021C105.979 6.47129 106.933 6.1422 107.78 6.1096C108.197 6.09358 108.658 5.96964 109.07 5.89465C109.457 5.82432 109.843 5.80409 110.217 5.67969" stroke="#1E1E1E" stroke-width="3" stroke-linecap="round"/>
<path d="M113.443 75C113.235 75 111.86 75 111.773 75C111.519 75 109.893 75 109.494 75C109.022 75 107.286 75 108.592 75C109.501 75 110.395 75 111.317 75C111.804 75 113.025 75 111.849 75C111.221 75 110.542 75 109.95 75C108.21 75 106.428 75 104.71 75C104.577 75 103.706 75 104.102 75C104.432 75 104.761 75 105.09 75C105.925 75 106.831 75 107.655 75C108.942 75 110.266 75 111.545 75C112.276 75 112.981 75 113.747 75C114.063 75 113.986 75 113.595 75C113.506 75 112.601 75 113.089 75C113.533 75 113.857 75 114.279 75C114.822 75 115.365 75 115.907 75C116.656 75 117.608 75 118 75" stroke="#B90808" stroke-width="3" stroke-linecap="round"/>
<path d="M111 76C111 17.5929 111 1.66372 111 1" stroke="#B90808" stroke-width="6"/>
<path d="M114.047 2C113.958 2 113.369 2 113.331 2C113.222 2 112.525 2 112.355 2C112.152 2 111.408 2 111.968 2C112.357 2 112.741 2 113.136 2C113.344 2 113.868 2 113.364 2C113.095 2 112.804 2 112.55 2C111.804 2 111.041 2 110.304 2C110.247 2 109.874 2 110.044 2C110.185 2 110.326 2 110.467 2C110.825 2 111.213 2 111.566 2C112.118 2 112.685 2 113.234 2C113.547 2 113.849 2 114.177 2C114.313 2 114.28 2 114.112 2C114.074 2 113.686 2 113.895 2C114.086 2 114.225 2 114.405 2C114.638 2 114.871 2 115.103 2C115.424 2 115.832 2 116 2" stroke="#B90808" stroke-width="2" stroke-linecap="round"/>
<path d="M118.544 77.6678C118.45 77.6678 117.599 77.6847 117.985 77.5127C118.08 77.4705 118.239 77.5003 118.342 77.5003C118.442 77.5003 118.141 77.5059 118.041 77.5003C117.936 77.4945 117.863 77.2521 117.961 77.2243C118.053 77.1981 118.232 77.2698 118.308 77.2088C118.399 77.1362 118.479 77.1096 118.292 77.1096C118.143 77.1096 118.117 76.9979 117.985 76.9979" stroke="#1E1E1E" stroke-linecap="round"/>
<path d="M118.32 76.663C118.502 76.663 118.551 76.8304 118.767 76.8304C119.07 76.8304 118.587 76.9166 118.879 76.787C118.903 76.7761 119.119 76.7188 118.99 76.7188C118.636 76.7188 119.152 76.663 118.795 76.663C118.614 76.663 118.469 76.7323 118.293 76.7715C118.098 76.8147 117.696 76.6221 117.595 76.7994C117.526 76.9197 117.127 77.0537 117.266 77.0537C117.436 77.0537 117.924 77.0583 118.054 76.9545C118.167 76.8642 118.511 76.9072 118.655 76.8428C118.805 76.7764 118.948 76.7439 119.102 76.6754C119.347 76.5665 118.935 76.6071 118.823 76.6071C118.641 76.6071 118.447 76.663 118.293 76.663C117.978 76.663 117.608 76.8119 117.288 76.8832C116.913 76.9663 116.422 76.7908 116.422 77.3328" stroke="#1E1E1E" stroke-linecap="round"/>
<ellipse cx="118" cy="38.5" rx="38" ry="37.5" fill="#B90808"/>
<ellipse cx="118.5" cy="38.5" rx="32.5" ry="31.5" fill="#1E1E1E"/>
<path d="M69 73.5H8C12.8333 68.8333 31.8 49.4 69 9V73.5ZM69 73.5V130M69 73.5H111M111 73.5V130M111 73.5V9" stroke="#B90808" stroke-width="6"/>
<rect x="80" y="2" width="28" height="68.5" fill="#1E1E1E"/>
<path d="M111 1V30" stroke="#B90808" stroke-width="6"/>
<path d="M129 72L112 76" stroke="#B90808" stroke-width="3"/>
<path d="M125 2L108 1" stroke="#B90808"/>
</svg>
